# xmcd CD database file
#
# Track frame offsets:
#	150
#	19762
#	40947
#	60502
#
# Disc length: 1085 seconds
#
# Revision: 0
# Processed by: cddbd v1.5PL3 Copyright (c) Steve Scherf et al.
# Submitted via: CDex 1.40Release
#
DISCID=29043b04
DTITLE=由紀さおり 安田祥子 - 虹色の砂時計
DYEAR=2001
DGENRE=Anime
TTITLE0=虹色の砂時計
TTITLE1=星が歌った物語 〜ポロ兄ちゃんとタンちん君〜
TTITLE2=虹色の砂時計 （オリジナルカラオケ）
TTITLE3=星が歌った物語 （オリジナルカラオケ）
EXTD=YEAR: 2001
EXTT0=
EXTT1=
EXTT2=
EXTT3=
PLAYORDER=
